<svg width="31" height="28" viewBox="0 0 31 28" fill="none" xmlns="http://www.w3.org/2000/svg">
<rect width="31" height="28" rx="8" fill="#0066FF"/>
<path d="M15.1666 7.33337H9.33329C8.89127 7.33337 8.46734 7.50897 8.15478 7.82153C7.84222 8.13409 7.66663 8.55801 7.66663 9.00004V20.6667C7.66663 21.1087 7.84222 21.5327 8.15478 21.8452C8.46734 22.1578 8.89127 22.3334 9.33329 22.3334H21C21.442 22.3334 21.8659 22.1578 22.1785 21.8452C22.491 21.5327 22.6666 21.1087 22.6666 20.6667V14.8334" stroke="white" stroke-linecap="round" stroke-linejoin="round"/>
<path d="M21.4166 6.08332C21.7481 5.7518 22.1978 5.56555 22.6666 5.56555C23.1355 5.56555 23.5851 5.7518 23.9166 6.08332C24.2481 6.41484 24.4344 6.86448 24.4344 7.33332C24.4344 7.80216 24.2481 8.2518 23.9166 8.58332L16 16.5L12.6666 17.3333L13.5 14L21.4166 6.08332Z" stroke="white" stroke-linecap="round" stroke-linejoin="round"/>
</svg>
