<svg width="22" height="22" viewBox="0 0 22 22" fill="none" xmlns="http://www.w3.org/2000/svg">
<g clip-path="url(#clip0_98_736)">
<path d="M10.4487 21.2881C10.526 21.2948 10.5576 21.2432 10.5808 21.1817C10.8363 20.9678 11.0591 20.7127 11.3621 20.5602C11.7753 20.441 12.1307 20.5713 12.4691 20.8086C12.8007 21.0416 13.1324 21.2776 13.4817 21.4805C14.0902 21.8333 14.4529 21.7178 14.7499 21.0791C14.9343 20.6826 15.0803 20.2676 15.2465 19.8625C15.488 19.2742 15.8404 19.0916 16.4727 19.182C16.8919 19.2416 17.3051 19.3455 17.7323 19.3535C18.4662 19.367 18.7115 19.1439 18.7042 18.4062C18.6999 17.9575 18.6598 17.5093 18.6409 17.0606C18.6293 16.7907 18.65 16.5227 18.8515 16.3167C19.1119 16.0512 19.4667 15.9073 19.7953 15.8157C20.0862 15.7346 20.4038 15.7094 20.688 15.5871C21.2954 15.3258 21.4335 14.9736 21.1523 14.368C20.9856 14.0084 20.7708 13.6722 20.5828 13.3224C20.1842 12.5786 20.2675 12.1944 20.912 11.6417C21.2199 11.378 21.5284 11.11 21.7791 10.7872C22.0992 10.3747 22.0706 10.0145 21.6952 9.6469C21.4025 9.36105 21.0483 9.15819 20.7075 8.93935C19.9876 8.47707 19.8568 8.0861 20.1708 7.29248C20.3059 6.95131 20.4489 6.61198 20.5602 6.26281C20.786 5.55279 20.6016 5.22084 19.8854 5.05732C19.5123 4.97187 19.1302 4.9227 18.751 4.86676C18.0251 4.75856 17.7269 4.4389 17.677 3.70061C17.6532 3.35452 17.6362 3.00719 17.6076 2.6611C17.5394 1.83736 17.1901 1.57671 16.4002 1.75867C16.2627 1.79064 16.1264 1.83121 15.9913 1.87301C15.6822 1.9683 15.3809 2.08817 15.0602 2.14411C14.644 2.21665 14.3136 2.11645 14.0574 1.74822C13.772 1.33697 13.5693 0.878994 13.2955 0.461591C12.9474 -0.0676921 12.5324 -0.140845 12.0139 0.229838C11.6974 0.456674 11.4473 0.752974 11.1528 1.00071C10.5138 1.53922 10.2728 1.62282 9.66734 1.26197C9.63387 1.2423 9.59006 1.23984 9.55172 1.23001L9.5505 1.23431C9.48965 1.09599 9.35212 1.06464 9.23589 1.00255C9.09227 0.891289 8.95291 0.772645 8.80321 0.669985C7.93726 0.0730813 7.51371 0.205863 7.11877 1.19128C6.97515 1.55028 6.8504 1.91973 6.67636 2.26337C6.43112 2.74839 6.10859 2.89285 5.57916 2.8154C5.14953 2.75269 4.7205 2.68815 4.29087 2.62913C3.64339 2.54061 3.2953 2.83015 3.29408 3.48484C3.29347 3.90224 3.34277 4.31964 3.35311 4.73705C3.37319 5.57308 3.17785 5.83188 2.37458 6.07163C2.04535 6.16998 1.71066 6.25359 1.39056 6.37653C0.69135 6.64456 0.546517 7.01032 0.875129 7.68714C1.07047 8.08979 1.30598 8.47277 1.51592 8.86866C1.72587 9.26454 1.72587 9.6426 1.41795 10.0016C1.2579 10.1879 1.08447 10.3557 0.901296 10.5167C0.657271 10.7313 0.41142 10.9471 0.213644 11.2065C-0.108274 11.6288 -0.0595911 12.0069 0.334744 12.3609C0.608588 12.6068 0.918336 12.7992 1.21774 13.0076C2.0916 13.6162 2.17558 13.9125 1.75082 14.9053C1.60234 15.252 1.44959 15.5969 1.3717 15.9694C1.28103 16.4071 1.41917 16.6764 1.83176 16.8429C1.95286 16.8915 2.08187 16.9253 2.21027 16.9493C2.65633 17.0329 3.10726 17.0956 3.55089 17.1921C3.95192 17.2794 4.20385 17.5278 4.27018 17.9568C4.33591 18.381 4.35842 18.8082 4.38337 19.2355C4.43632 20.1428 4.79901 20.4182 5.67105 20.1994C6.0526 20.1035 6.42442 19.9689 6.80415 19.8668C7.37192 19.7144 7.70114 19.8594 8.01758 20.3481C8.28899 20.7668 8.48008 21.234 8.788 21.6305C9.12148 22.0608 9.45983 22.1118 9.90832 21.7915C9.93084 21.7719 9.95275 21.7522 9.97526 21.7331L9.97648 21.7374C10.1706 21.6323 10.3647 21.5278 10.439 21.2954L10.4487 21.2881Z" fill="#FEFEFE"/>
<path d="M9.90645 21.7934C9.45734 22.1137 9.1196 22.0627 8.78612 21.6324C8.47881 21.2359 8.28712 20.7693 8.01571 20.35C7.69927 19.8613 7.37004 19.7162 6.80227 19.8687C6.42194 19.9707 6.05073 20.106 5.66917 20.2013C4.79713 20.4201 4.43505 20.1441 4.3815 19.2374C4.35655 18.8101 4.33342 18.3829 4.26831 17.9587C4.20198 17.5296 3.95065 17.2813 3.54901 17.194C3.10538 17.0981 2.65506 17.0348 2.20839 16.9512C2.07999 16.9272 1.95098 16.8934 1.82988 16.8448C1.41668 16.6789 1.27854 16.409 1.36982 15.9713C1.44711 15.5988 1.60046 15.2539 1.74894 14.9072C2.17371 13.9138 2.08973 13.6175 1.21586 13.0095C0.916459 12.8011 0.606711 12.6087 0.332867 12.3628C-0.0614679 12.0087 -0.110151 11.6307 0.211767 11.2084C0.410152 10.9483 0.655394 10.7332 0.89942 10.5186C1.08259 10.3576 1.25663 10.1897 1.41607 10.0035C1.72399 9.64448 1.72399 9.26642 1.51405 8.87054C1.3041 8.47465 1.06859 8.09167 0.873252 7.68902C0.54464 7.01159 0.690081 6.64644 1.38869 6.37842C1.70878 6.25547 2.04348 6.17187 2.3727 6.07351C3.17597 5.83377 3.37192 5.57435 3.35123 4.73893C3.34089 4.32153 3.2916 3.90412 3.29221 3.48672C3.29342 2.83203 3.64151 2.54249 4.289 2.63102C4.71924 2.68941 5.14826 2.75458 5.57728 2.81728C6.10732 2.89474 6.42924 2.75027 6.67448 2.26525C6.84852 1.92162 6.97327 1.55216 7.11689 1.19316C7.51123 0.207745 7.93477 0.0749636 8.80134 0.671868C8.95104 0.775142 9.08978 0.893171 9.23401 1.00444C9.20419 1.26877 9.41657 1.19623 9.54862 1.23619C9.54862 1.23619 9.54984 1.23189 9.54984 1.2325C9.52854 1.3075 9.42448 1.34254 9.45308 1.44766C9.54862 1.47286 9.61861 1.29336 9.71658 1.40094C9.94053 1.64683 10.229 1.53065 10.4906 1.54233C10.7292 1.55278 10.9507 1.86875 11.2282 1.47225C11.2032 1.67695 11.1826 1.76547 11.1826 1.854C11.1801 2.82466 11.185 3.79532 11.1783 4.76598C11.1771 4.98359 11.2684 5.06781 11.4704 5.04445C11.7345 5.0131 11.8002 5.14588 11.7917 5.38808C11.7783 5.79627 11.7905 6.20506 11.7868 6.61386C11.785 6.80873 11.8434 6.97163 12.0509 6.99807C12.2652 7.02511 12.2767 7.15544 12.2749 7.32203C12.2712 7.7714 12.2725 8.22138 12.2737 8.67075C12.2743 8.9191 12.2189 9.18589 12.0917 9.36109C11.9639 9.53691 12.1933 9.45822 12.152 9.52338C12.11 9.57994 12.0735 9.64202 12.0248 9.69182C11.2921 10.4356 10.5612 11.1807 9.82125 11.9165C9.66668 12.0702 9.53767 12.3598 9.33198 12.3241C9.15125 12.2927 9.00337 12.0487 8.84758 11.8913C8.28286 11.3227 7.72361 10.7492 7.15584 10.1842C7.07612 10.1049 6.98727 9.92111 6.8394 10.0723C6.40125 10.5199 5.91624 10.9213 5.53346 11.4229C5.56937 11.7801 5.87607 12.1022 6.27528 12.2042L6.27223 12.211C6.28501 12.2743 6.33187 12.2829 6.38421 12.2823C6.62154 12.5153 6.86069 12.7458 7.09498 12.9819C7.78264 13.674 8.47455 14.3625 9.15064 15.0664C9.31555 15.2385 9.41049 15.225 9.55532 15.0597C9.73606 14.8531 9.93809 14.6668 10.1316 14.472C12.3132 12.2694 14.4955 10.0674 16.6777 7.86545C16.769 7.77324 16.8901 7.69333 16.8085 7.53227C16.9789 7.64722 16.9874 7.88697 16.814 8.05602C16.6357 8.22937 16.4592 8.40826 16.2767 8.57301C15.8306 8.97566 15.4673 9.46314 14.9841 9.82706C14.86 9.9205 14.8076 10.1074 14.6872 10.2088C14.1157 10.6901 13.5924 11.228 13.0855 11.7684C12.5706 12.3167 12.0497 12.8577 11.5179 13.3894C11.4004 13.5062 11.2787 13.62 11.1905 13.821C11.3487 13.7546 11.485 13.7847 11.5909 13.6833C11.6956 13.5831 11.785 13.4343 11.9706 13.5751C12.1684 13.7251 12.3802 13.8665 12.3108 14.1585C12.2712 14.3257 12.2408 14.488 12.3437 14.6281C12.5408 14.8986 12.4763 15.2084 12.4428 15.4863C12.3856 15.9572 11.9779 15.7266 11.715 15.7838C11.6858 15.79 11.6548 15.7856 11.6244 15.7863C11.4868 15.79 11.4241 15.8643 11.4241 16.0002C11.4241 16.8479 11.4242 17.6962 11.4229 18.5439C11.4229 18.6478 11.4515 18.7019 11.5672 18.7333C11.8751 18.8169 11.8964 18.8968 11.7552 19.1777C11.6663 19.3548 11.5404 19.5527 11.83 19.683C11.8897 19.7101 11.8988 19.7759 11.9085 19.8392C11.9542 20.1336 11.852 20.2554 11.4698 20.3211C11.2939 20.3519 11.1765 20.3814 11.3603 20.5646C11.0572 20.717 10.8339 20.9721 10.5789 21.1861C10.5034 21.1818 10.459 21.2168 10.4468 21.2924C10.4468 21.2924 10.4359 21.301 10.4365 21.301C10.1985 21.3588 9.9813 21.4387 9.97339 21.743L9.97217 21.7387C9.95148 21.7547 9.92896 21.7744 9.90645 21.7934ZM11.0469 20.3974C11.0219 20.3703 11.0079 20.3414 10.9884 20.3371C10.9659 20.3322 10.9251 20.3414 10.916 20.358C10.8929 20.3998 10.9178 20.4306 10.9629 20.4312C10.986 20.4318 11.0097 20.4127 11.0469 20.3974Z" fill="#0066FF"/>
<path d="M11.3621 20.5603C11.1783 20.3771 11.2957 20.3476 11.4716 20.3169C11.8538 20.2505 11.956 20.1288 11.9104 19.8349C11.9006 19.7716 11.8915 19.7058 11.8319 19.6788C11.5428 19.5485 11.6682 19.3505 11.757 19.1735C11.8982 18.8925 11.8775 18.812 11.569 18.729C11.4534 18.6977 11.4248 18.643 11.4248 18.5397C11.426 17.692 11.426 16.8436 11.426 15.9959C11.426 15.8601 11.4887 15.7857 11.6262 15.782C11.6566 15.7814 11.6876 15.7857 11.7169 15.7795C11.9797 15.7224 12.3869 15.9529 12.4447 15.482C12.4787 15.2041 12.5426 14.8943 12.3455 14.6238C12.2432 14.4837 12.2731 14.3214 12.3126 14.1542C12.382 13.8622 12.1696 13.7208 11.9724 13.5708C11.7868 13.43 11.6974 13.5788 11.5927 13.679C11.4868 13.7804 11.3505 13.7497 11.1923 13.8167C11.2805 13.6157 11.4022 13.502 11.5197 13.3852C12.0516 12.854 12.5725 12.3124 13.0873 11.7641C13.5942 11.2238 14.1176 10.6859 14.689 10.2045C14.8095 10.1031 14.8618 9.91623 14.9859 9.82279C15.4697 9.45887 15.8324 8.97139 16.2785 8.56874C16.461 8.40399 16.6375 8.2251 16.8158 8.05175C16.9893 7.8827 16.9807 7.64295 16.8103 7.528L16.8231 7.51078C16.8073 7.44562 16.7568 7.43886 16.7026 7.43948C16.3485 7.09154 15.9943 6.74298 15.6395 6.39566C15.5312 6.28931 15.4442 6.21677 15.2926 6.37661C14.7407 6.95937 14.1772 7.53107 13.6064 8.09539C13.1238 8.57242 12.6765 9.08634 12.1538 9.52218C12.1952 9.45641 11.9657 9.53571 12.0935 9.3599C12.2207 9.1847 12.2761 8.9179 12.2755 8.66955C12.2743 8.22018 12.2725 7.7702 12.2767 7.32083C12.2779 7.15424 12.267 7.02392 12.0528 6.99687C11.8453 6.97105 11.7874 6.80753 11.7887 6.61266C11.7917 6.20387 11.7795 5.79507 11.7935 5.38689C11.8014 5.14468 11.7357 5.0119 11.4722 5.04325C11.2702 5.06723 11.1783 4.98239 11.1801 4.76478C11.1868 3.79412 11.1819 2.82346 11.1844 1.8528C11.1844 1.76428 11.2045 1.67576 11.23 1.47105C10.9531 1.86755 10.7316 1.55219 10.4925 1.54113C10.2314 1.52945 9.94235 1.64502 9.7184 1.39974C9.62043 1.29216 9.55045 1.47228 9.4549 1.44646C9.42691 1.34196 9.53036 1.3063 9.55166 1.2313C9.59061 1.24176 9.63442 1.2436 9.66789 1.26327C10.2728 1.62412 10.5138 1.54051 11.1533 1.00201C11.4473 0.754273 11.6974 0.457358 12.0144 0.231137C12.5329 -0.14016 12.9479 -0.0663926 13.296 0.462891C13.5705 0.879679 13.7725 1.33827 14.0579 1.74952C14.3135 2.11775 14.6445 2.21795 15.0608 2.14541C15.3821 2.08947 15.6833 1.9696 15.9919 1.87431C16.127 1.83251 16.2633 1.79194 16.4008 1.75997C17.1907 1.57801 17.54 1.83866 17.6081 2.6624C17.6367 3.00849 17.6538 3.3552 17.6775 3.70191C17.7274 4.4402 18.0256 4.75986 18.7516 4.86805C19.1307 4.92461 19.5129 4.97379 19.8859 5.05862C20.6022 5.22214 20.7866 5.55348 20.5608 6.26411C20.4494 6.61328 20.3064 6.95261 20.1713 7.29378C19.8573 8.08679 19.9888 8.47776 20.7081 8.94065C21.0482 9.15949 21.403 9.36235 21.6957 9.6482C22.0712 10.0158 22.0998 10.376 21.7797 10.7885C21.529 11.1113 21.2204 11.3793 20.9125 11.643C20.2681 12.195 20.1847 12.5799 20.5833 13.3237C20.7707 13.6735 20.9856 14.0103 21.1529 14.3693C21.434 14.9755 21.2959 15.3271 20.6886 15.5884C20.4044 15.7107 20.0867 15.7359 19.7959 15.817C19.4672 15.9086 19.1125 16.0525 18.852 16.318C18.6506 16.5234 18.6299 16.7914 18.6414 17.0619C18.6603 17.5106 18.7005 17.9588 18.7047 18.4075C18.712 19.1452 18.4674 19.3683 17.7329 19.3548C17.3051 19.3468 16.8925 19.2429 16.4732 19.1833C15.8409 19.0929 15.4886 19.2755 15.247 19.8638C15.0803 20.2689 14.9342 20.6839 14.7504 21.0804C14.4541 21.7191 14.0908 21.8346 13.4822 21.4818C13.1323 21.2789 12.8013 21.0429 12.4696 20.8099C12.1307 20.5714 11.7753 20.441 11.3621 20.5603Z" fill="#0066FF"/>
<path d="M9.97522 21.7394C9.98252 21.4351 10.1998 21.3551 10.4383 21.2974C10.3635 21.5297 10.1693 21.6342 9.97522 21.7394Z" fill="#0066FF"/>
<path d="M9.54984 1.2356C9.41779 1.19564 9.20541 1.26818 9.23522 1.00385C9.35146 1.06532 9.48899 1.09728 9.54984 1.2356Z" fill="#0066FF"/>
<path d="M10.4487 21.2881C10.4608 21.2125 10.5052 21.1774 10.5807 21.1817C10.557 21.2432 10.5259 21.2949 10.4487 21.2881Z" fill="#0066FF"/>
<path d="M9.90645 21.7934C9.92896 21.7738 9.95087 21.7541 9.97339 21.735C9.95148 21.7547 9.92896 21.7744 9.90645 21.7934Z" fill="#0066FF"/>
<path d="M12.1538 9.52154C12.6765 9.08631 13.1238 8.57178 13.6064 8.09475C14.1772 7.53104 14.7407 6.95934 15.2927 6.37596C15.4436 6.21613 15.5306 6.28867 15.6395 6.39502C15.9943 6.74234 16.3485 7.0909 16.7026 7.43884C16.7282 7.48801 16.7629 7.52121 16.8231 7.51014L16.8104 7.52736C16.8919 7.68903 16.7708 7.76833 16.6795 7.86054C14.4973 10.0625 12.3157 12.2651 10.1334 14.4671C9.94053 14.6619 9.73788 14.8488 9.55715 15.0547C9.41231 15.2207 9.31738 15.2336 9.15247 15.0615C8.47698 14.3576 7.78507 13.6691 7.09681 12.9769C6.86252 12.7409 6.62276 12.5104 6.38604 12.2774C6.36169 12.2325 6.32883 12.2018 6.27406 12.2061C6.27406 12.2061 6.27711 12.1993 6.27711 12.1999C6.08359 11.8876 5.78966 11.6719 5.53529 11.4186C5.91807 10.917 6.40307 10.5156 6.84122 10.068C6.9891 9.91743 7.07795 10.1006 7.15767 10.1799C7.72544 10.7449 8.28529 11.3184 8.84941 11.887C9.0052 12.0438 9.15307 12.2884 9.33381 12.3198C9.5395 12.3555 9.66912 12.0659 9.82308 11.9122C10.5631 11.1764 11.2939 10.4307 12.0266 9.68752C12.0753 9.64019 12.1118 9.57748 12.1538 9.52154Z" fill="#FEFEFE"/>
<path d="M5.53468 11.4211C5.78905 11.6744 6.08298 11.8901 6.2765 12.2024C5.87729 12.1004 5.57059 11.7782 5.53468 11.4211Z" fill="#0066FF"/>
<path d="M11.0469 20.3974C11.0097 20.4134 10.986 20.4318 10.9623 20.4318C10.9178 20.4312 10.8923 20.4004 10.9154 20.3586C10.9245 20.342 10.9653 20.3328 10.9878 20.3377C11.0079 20.3414 11.0225 20.3703 11.0469 20.3974Z" fill="#0066FF"/>
<path d="M6.27406 12.2085C6.32883 12.2042 6.36169 12.235 6.38604 12.2798C6.33309 12.2805 6.28684 12.2712 6.27406 12.2085Z" fill="#0066FF"/>
<path d="M16.8225 7.51074C16.7623 7.5218 16.727 7.48861 16.702 7.43943C16.7562 7.43881 16.8067 7.44557 16.8225 7.51074Z" fill="#0066FF"/>
</g>
<defs>
<clipPath id="clip0_98_736">
<rect width="22" height="22" fill="white"/>
</clipPath>
</defs>
</svg>
