<svg width="23" height="22" viewBox="0 0 23 22" fill="none" xmlns="http://www.w3.org/2000/svg">
<path d="M23 11C23 11.507 22.5688 11.9152 22.0432 11.9152C21.5176 11.9152 21.0863 11.5027 21.0863 11C21.0773 5.93828 16.7918 1.83906 11.5 1.83477C10.9699 1.83477 10.5432 1.42227 10.5432 0.919531C10.5432 0.416797 10.9699 0 11.5 0C17.8475 0.00859375 22.991 4.92852 23 11ZM15.3318 11.9152C15.8619 11.9152 16.2887 11.5027 16.2887 11C16.2887 10.493 15.8574 10.0848 15.3318 10.0848H13.1486C12.9824 9.80977 12.7443 9.58203 12.4568 9.42305V6.41953C12.4568 5.9125 12.0256 5.5043 11.5 5.5043C10.9699 5.5043 10.5432 5.9168 10.5432 6.41953V9.42305C9.62676 9.92578 9.3123 11.043 9.83789 11.9152C10.3635 12.7918 11.5314 13.0926 12.4479 12.5855C12.7398 12.4266 12.9824 12.1945 13.1486 11.9152H15.3318ZM1.75195 6.21758C1.22187 6.21758 0.795117 6.63008 0.795117 7.13281C0.795117 7.63555 1.22637 8.04805 1.75195 8.04805C2.27754 8.04805 2.70879 7.63555 2.70879 7.13281C2.70879 6.63008 2.28203 6.21758 1.75195 6.21758ZM1.91816 11C1.91816 10.493 1.48691 10.0848 0.961328 10.0848C0.435742 10.0848 0 10.493 0 11C0 11.507 0.43125 11.9152 0.956836 11.9152C1.48242 11.9152 1.91816 11.507 1.91816 11ZM11.5 20.1652C10.9699 20.1652 10.5432 20.5777 10.5432 21.0805C10.5432 21.5875 10.9744 21.9957 11.5 21.9957C12.0301 21.9957 12.4568 21.5832 12.4568 21.0805C12.4568 20.5777 12.0301 20.1652 11.5 20.1652ZM4.04297 2.93906C3.51289 2.93906 3.08613 3.35156 3.08613 3.8543C3.08613 4.35703 3.51738 4.76953 4.04297 4.76953C4.56855 4.76953 4.9998 4.35703 4.9998 3.8543C4.9998 3.35156 4.57305 2.93906 4.04297 2.93906ZM7.45703 0.769141C6.92695 0.769141 6.5002 1.18164 6.5002 1.68438C6.5002 2.18711 6.93145 2.59961 7.45703 2.59961C7.98711 2.59961 8.41387 2.18711 8.41387 1.68438C8.41387 1.18164 7.98262 0.769141 7.45703 0.769141ZM1.75195 13.9477C1.22187 13.9477 0.795117 14.3602 0.795117 14.8629C0.795117 15.3699 1.22637 15.7781 1.75195 15.7781C2.27754 15.7781 2.70879 15.3656 2.70879 14.8629C2.70879 14.3602 2.28203 13.9477 1.75195 13.9477ZM4.04297 17.2262C3.51289 17.2262 3.08613 17.6387 3.08613 18.1414C3.08613 18.6441 3.51738 19.0566 4.04297 19.0566C4.56855 19.0566 4.9998 18.6441 4.9998 18.1414C4.9998 17.6387 4.57305 17.2262 4.04297 17.2262ZM7.45703 19.3961C6.92695 19.3961 6.5002 19.8086 6.5002 20.3113C6.5002 20.8184 6.93145 21.2266 7.45703 21.2266C7.98711 21.2266 8.41387 20.8141 8.41387 20.3113C8.41387 19.8043 7.98262 19.3961 7.45703 19.3961ZM21.248 13.9477C20.718 13.9477 20.2912 14.3602 20.2912 14.8629C20.2912 15.3699 20.7225 15.7781 21.248 15.7781C21.7781 15.7781 22.2049 15.3656 22.2049 14.8629C22.2094 14.3602 21.7781 13.9477 21.248 13.9477ZM18.957 17.2262C18.427 17.2262 18.0002 17.6387 18.0002 18.1414C18.0002 18.6441 18.4314 19.0566 18.957 19.0566C19.4871 19.0566 19.9139 18.6441 19.9139 18.1414C19.9139 17.6387 19.4826 17.2262 18.957 17.2262ZM15.543 19.3961C15.0129 19.3961 14.5861 19.8086 14.5861 20.3113C14.5861 20.8184 15.0174 21.2266 15.543 21.2266C16.073 21.2266 16.4998 20.8141 16.4998 20.3113C16.5043 19.8043 16.073 19.3961 15.543 19.3961Z" fill="#0066FF"/>
</svg>
