<svg width="42" height="41" viewBox="0 0 42 41" fill="none" xmlns="http://www.w3.org/2000/svg">
<path d="M41.0849 27.8071C40.6141 28.5051 40.1444 28.5504 39.5353 27.9524C36.5572 25.0288 33.5771 22.1074 30.6066 19.1764C30.3985 18.9711 30.1948 18.9016 29.9084 18.8985C28.5722 18.8827 27.236 18.9648 25.9009 18.8459C23.7593 18.6553 22.0103 17.7183 20.5808 16.1728C20.2129 15.7749 19.8687 15.3548 19.5427 14.9232C19.3904 14.7211 19.3207 14.7105 19.132 14.8884C17.3261 16.5908 15.1577 17.3846 12.6612 17.3235C8.41773 17.2193 4.68688 13.843 4.2472 9.71192C3.76034 5.1639 6.61289 1.22439 11.1319 0.191606C11.3818 0.134756 11.6596 0.174762 11.8773 0C12.5722 0 13.2681 0 13.9631 0C13.9888 0.024214 14.0113 0.0673781 14.0403 0.0705364C17.0247 0.460066 19.2489 1.95712 20.7363 4.51538C20.8553 4.72067 21.0022 4.72699 21.1931 4.72699C23.7068 4.72489 26.2194 4.73541 28.7331 4.71646C29.2017 4.71331 29.5384 4.86596 29.8623 5.1839C33.4184 8.68966 36.9841 12.186 40.5487 15.6833C40.746 15.877 40.9326 16.0749 41.0849 16.3044C41.0849 20.1397 41.0849 23.974 41.0849 27.8071ZM18.8006 9.45293C19.0398 10.3299 19.9438 10.9974 20.9314 11.0226C21.5331 11.0384 22.1347 11.0395 22.7363 11.0237C23.2306 11.01 23.5181 11.2216 23.7122 11.669C24.3942 13.2408 25.6221 14.0757 27.3615 14.1757C27.9073 14.2073 28.2591 14.5231 28.2451 14.9885C28.2312 15.4527 27.8634 15.7738 27.3175 15.7496C25.2382 15.657 23.65 14.7305 22.584 12.9798C22.4092 12.6923 22.2473 12.546 21.9105 12.6007C21.7936 12.6197 21.666 12.6239 21.5513 12.6007C21.0183 12.4913 20.718 12.726 20.5154 13.1945C20.4403 13.3661 20.436 13.4651 20.5422 13.6093C20.9701 14.1968 21.4151 14.7695 21.9266 15.2906C23.043 16.4245 24.3803 17.113 25.9942 17.274C26.9958 17.3741 27.9974 17.3162 28.999 17.3277C30.0682 17.3404 31.1385 17.3298 32.2076 17.3309C32.5958 17.3309 32.8768 17.4993 33.0108 17.8626C33.146 18.231 33.0194 18.5269 32.7149 18.7627C32.6698 18.7974 32.5873 18.8058 32.6763 18.8153C34.954 21.0525 37.2318 23.2886 39.4827 25.4994C39.4827 22.7327 39.4806 19.9007 39.4881 17.0677C39.4881 16.8824 39.3926 16.7824 39.279 16.6708C35.828 13.284 32.3771 9.89826 28.9315 6.50619C28.776 6.35249 28.6205 6.29774 28.406 6.2988C26.214 6.30511 24.021 6.30195 21.829 6.30406C21.7282 6.30406 21.6199 6.26932 21.5288 6.3367C21.6038 6.72728 21.7079 7.10944 21.74 7.49791C21.7647 7.7948 21.8494 7.8885 22.1658 7.88534C23.8097 7.86849 25.4548 7.87692 27.0988 7.87692C27.1921 7.87692 27.2864 7.87481 27.3797 7.87692C27.8945 7.8906 28.2473 8.20959 28.2484 8.66124C28.2494 9.11288 27.8966 9.44767 27.3851 9.44977C25.8612 9.45609 24.3374 9.45188 22.8135 9.45188C21.4751 9.45293 20.14 9.45293 18.8006 9.45293ZM18.8617 7.87692C19.1695 7.87692 19.4794 7.85481 19.784 7.88323C20.1089 7.91376 20.1818 7.80954 20.1325 7.50107C19.6188 4.29535 16.7287 1.74025 13.4247 1.58549C8.86277 1.37178 5.29278 5.13758 5.84721 9.57611C6.21075 12.4839 8.43596 14.9 11.3732 15.5749C14.3094 16.2497 17.4129 15.02 19.0515 12.5386C19.2028 12.3091 19.2489 12.2007 18.9465 12.0175C17.7121 11.2669 17.0655 10.1541 17.0172 8.72546C17.0001 8.21275 17.3346 7.89376 17.859 7.87902C18.1926 7.8706 18.5271 7.87797 18.8617 7.87692Z" fill="#0066FF"/>
<path d="M16.3609 29.3084C14.4564 29.3084 12.584 29.28 10.7126 29.3158C8.71371 29.3547 7.01718 31.0276 6.90887 32.9952C6.90351 33.1005 6.90887 33.2058 6.89708 33.31C6.84667 33.7311 6.50029 34.0364 6.08528 34.028C5.66919 34.0196 5.33353 33.7027 5.30243 33.2806C5.29278 33.15 5.27777 33.011 5.31101 32.8879C5.42469 32.4773 5.22951 32.4373 4.87133 32.4457C3.89546 32.4699 2.91851 32.4604 1.94263 32.4499C1.70671 32.4478 1.59625 32.471 1.5984 32.7563C1.61341 34.6597 1.61234 36.5631 1.59947 38.4676C1.59733 38.7234 1.68097 38.7634 1.91475 38.7613C3.85363 38.7519 5.79251 38.7561 7.73247 38.7561C7.83971 38.7561 7.94695 38.7529 8.05311 38.7571C8.56143 38.774 8.91424 39.1045 8.90566 39.5572C8.89816 39.9952 8.55499 40.3226 8.06598 40.3289C7.34426 40.3384 6.62147 40.3321 5.89975 40.3321C4.25471 40.3321 2.60966 40.3331 0.964615 40.331C0.299733 40.33 0.00268098 40.0436 0.00160859 39.4004C-0.000536195 36.8663 -0.000536195 34.3323 0.00160859 31.7993C0.00268098 31.176 0.301878 30.8813 0.933516 30.8792C2.45845 30.876 3.98232 30.8718 5.50726 30.8844C5.75713 30.8865 5.87402 30.8055 5.99627 30.5981C7.06866 28.7704 8.69011 27.7861 10.8349 27.7387C12.9604 27.6913 15.0869 27.725 17.2135 27.7282C17.8376 27.7292 18.1443 28.0472 18.1304 28.6599C18.0853 30.6633 16.3641 32.3773 14.3062 32.4436C13.5062 32.4699 12.7051 32.4478 11.8987 32.4478C12.1164 33.3016 13.0172 33.9933 13.9845 34.0196C14.8928 34.0449 15.8033 34.0207 16.7127 34.0333C16.9025 34.0354 17.0033 33.9375 17.1159 33.8259C18.1936 32.7668 19.2714 31.7087 20.3502 30.6507C21.8741 29.1568 23.5867 28.8989 25.4891 29.8959C25.6789 29.9948 25.7808 29.919 25.917 29.8453C27.4559 29.0084 29.2939 29.1968 30.5787 30.3222C31.0752 30.7581 31.1149 31.1497 30.6998 31.6508C28.421 34.3976 26.1379 37.1422 23.8623 39.891C23.6274 40.1742 23.3636 40.3352 22.9776 40.3342C20.4639 40.3258 17.9491 40.3279 15.4354 40.3321C15.0687 40.3331 14.7824 40.2121 14.6119 39.8836C14.4724 39.6151 14.4982 39.3498 14.6708 39.1024C14.8639 38.8245 15.1448 38.7508 15.4719 38.7519C17.7582 38.7561 20.0457 38.7477 22.332 38.7624C22.6333 38.7645 22.8113 38.6687 22.9958 38.4455C24.9132 36.1199 26.8425 33.8038 28.7674 31.4856C29.0537 31.1413 29.0537 31.1329 28.6098 31.0076C27.68 30.7444 26.8628 30.9571 26.1797 31.6193C24.9626 32.8005 23.7508 33.988 22.5508 35.1861C22.2591 35.4777 21.9491 35.6135 21.5256 35.6114C19.0912 35.5967 16.658 35.6104 14.2236 35.603C12.0789 35.5956 10.4488 34.2059 10.1389 32.1288C10.0907 31.8056 10.0488 31.4708 10.2826 31.1845C10.4735 30.9507 10.7277 30.8728 11.0269 30.8749C12.0703 30.8813 13.1127 30.8855 14.1561 30.8739C15.1695 30.8655 16.0306 30.2538 16.3609 29.3084ZM24.4478 31.1624C23.5084 30.6718 22.451 30.8465 21.6864 31.5803C20.9218 32.3141 20.1711 33.0616 19.4183 33.8069C19.3625 33.8617 19.2489 33.8964 19.2918 34.0301C19.9448 34.0301 20.5979 34.0217 21.251 34.0354C21.4387 34.0396 21.5438 33.948 21.6575 33.8354C22.2226 33.2774 22.7856 32.7163 23.3583 32.1646C23.7057 31.8298 24.0703 31.5087 24.4478 31.1624Z" fill="#0066FF"/>
<path d="M13.3615 23.3991C13.4826 23.3012 13.5781 23.2096 13.6864 23.1391C14.0113 22.9264 14.4017 22.9643 14.6773 23.2254C14.9647 23.497 15.0376 23.9203 14.7759 24.2224C14.2226 24.8614 13.6156 25.4563 12.9657 26.0005C12.6462 26.269 12.2569 26.2069 11.9191 25.8858C11.4097 25.4026 10.91 24.9099 10.4156 24.413C10.0392 24.035 10.0135 23.5928 10.3277 23.2581C10.6537 22.9117 11.1084 22.9201 11.5341 23.2802C11.5738 23.3138 11.6113 23.3496 11.6531 23.3865C11.7743 23.3107 11.7121 23.1949 11.7132 23.1033C11.7186 22.1589 11.7132 21.2146 11.7175 20.2703C11.7196 19.7333 12.0413 19.3807 12.5153 19.3785C12.9893 19.3764 13.3175 19.7291 13.3207 20.2629C13.3261 21.2862 13.325 22.3084 13.3261 23.3317C13.3261 23.3444 13.3368 23.3539 13.3615 23.3991Z" fill="#0066FF"/>
<path d="M12.5175 39.552C12.5132 39.9879 12.1325 40.3458 11.6896 40.3311C11.2606 40.3164 10.9132 39.9584 10.9164 39.5373C10.9207 39.1004 11.3003 38.7435 11.7443 38.7593C12.1722 38.773 12.5218 39.1309 12.5175 39.552Z" fill="#0066FF"/>
<path d="M13.0119 3.15305C13.4441 3.15937 13.8333 3.49099 13.7872 3.93421C13.7229 4.55536 13.8977 4.96068 14.5175 5.18387C14.7181 5.25651 14.8896 5.43969 15.0398 5.60287C15.324 5.91134 15.3079 6.34087 15.0301 6.64092C14.7588 6.93464 14.3191 6.98307 13.9749 6.75146C13.8097 6.64092 13.6639 6.49984 13.4913 6.40509C13.1642 6.22507 12.821 6.20822 12.5164 6.44931C12.2591 6.65355 12.1486 6.92727 12.2441 7.25574C12.3534 7.63159 12.6248 7.81898 13.0065 7.84214C13.4119 7.86636 13.8055 7.92847 14.1583 8.13166C14.9701 8.60014 15.4173 9.29182 15.4098 10.2267C15.4022 11.1605 14.9583 11.8638 14.1197 12.2901C13.8591 12.4228 13.7754 12.5618 13.798 12.825C13.8162 13.0334 13.814 13.2461 13.7947 13.4545C13.7561 13.8746 13.4044 14.183 12.9904 14.1788C12.5754 14.1746 12.1701 13.8535 12.2151 13.4398C12.2934 12.7323 12.0886 12.2638 11.3872 11.9975C11.1223 11.8964 10.9261 11.6437 10.747 11.4121C10.4682 11.051 10.5068 10.5952 10.8339 10.3162C11.1513 10.0446 11.5963 10.0561 11.9223 10.3562C12.1068 10.5267 12.2666 10.7257 12.4939 10.8457C12.8349 11.0258 13.1781 11.0689 13.5063 10.8184C13.7776 10.611 13.8698 10.3235 13.7829 10.0109C13.6757 9.6245 13.384 9.46132 12.9797 9.41921C11.695 9.28656 10.8725 8.60015 10.6559 7.5063C10.4553 6.49458 10.9325 5.45864 11.8687 4.99121C12.1454 4.85329 12.2323 4.7038 12.199 4.42481C12.1776 4.24373 12.184 4.05634 12.2012 3.87421C12.2441 3.45415 12.5969 3.14673 13.0119 3.15305Z" fill="#0066FF"/>
</svg>
